<svg preserveAspectRatio="none" width="100%" height="100%" overflow="visible" style="display: block;" viewBox="0 0 16 16" fill="none" xmlns="http://www.w3.org/2000/svg">
<g id="check-box / default">
<path id="Vector" d="M2.81481 14.6667C2.40741 14.6667 2.05852 14.5217 1.76815 14.2319C1.47827 13.9415 1.33333 13.5926 1.33333 13.1852V2.81481C1.33333 2.40741 1.47827 2.05852 1.76815 1.76815C2.05852 1.47827 2.40741 1.33333 2.81481 1.33333H13.1852C13.5926 1.33333 13.9415 1.47827 14.2319 1.76815C14.5217 2.05852 14.6667 2.40741 14.6667 2.81481V13.1852C14.6667 13.5926 14.5217 13.9415 14.2319 14.2319C13.9415 14.5217 13.5926 14.6667 13.1852 14.6667H2.81481ZM6.96296 10.7963C7.06173 10.7963 7.15432 10.781 7.24074 10.7504C7.32716 10.7193 7.40741 10.6667 7.48148 10.5926L11.6852 6.38889C11.821 6.25309 11.8889 6.08642 11.8889 5.88889C11.8889 5.69136 11.8148 5.51852 11.6667 5.37037C11.5309 5.23457 11.358 5.16667 11.1481 5.16667C10.9383 5.16667 10.7654 5.23457 10.6296 5.37037L6.96296 9.03704L5.35185 7.42593C5.21605 7.29012 5.04938 7.22222 4.85185 7.22222C4.65432 7.22222 4.48148 7.2963 4.33333 7.44444C4.19753 7.58025 4.12963 7.75309 4.12963 7.96296C4.12963 8.17284 4.19753 8.34568 4.33333 8.48148L6.44444 10.5926C6.51852 10.6667 6.59877 10.7193 6.68519 10.7504C6.77161 10.781 6.8642 10.7963 6.96296 10.7963V10.7963Z" fill="var(--fill-0, #60A5FA)"/>
</g>
</svg>
