<svg preserveAspectRatio="none" width="100%" height="100%" overflow="visible" style="display: block;" viewBox="0 0 400 471" fill="none" xmlns="http://www.w3.org/2000/svg">
<g id="Image" clip-path="url(#clip0_1139_3245)">
<path id="Vector" d="M166.076 386.579C174.035 378.468 185.569 373.817 197.72 373.817L198.189 373.818C206.192 373.821 214.053 371.724 220.968 367.74L221.687 367.326L221.108 366.736C217.97 363.529 215.351 359.864 213.341 355.871C214.768 357.186 216.471 358.175 218.328 358.768C220.186 359.361 222.152 359.543 224.089 359.302C226.133 359.061 228.096 358.366 229.83 357.268C231.564 356.171 233.024 354.7 234.1 352.966C238.347 346.157 243.41 336.496 243.41 329.136C243.403 322.916 242.085 316.764 239.539 311.075C236.993 305.385 233.275 300.282 228.623 296.091C225.677 293.467 223.325 290.259 221.718 286.676C220.112 283.093 219.288 279.216 219.299 275.297L219.302 274.74C219.302 269.581 218.664 264.441 217.402 259.435C216.139 254.429 217.273 258.929 217.273 258.929C217.273 258.929 220.142 258.833 216.747 258.947C213.353 259.061 209.956 258.78 206.628 258.11C209.75 257.731 212.804 256.929 215.703 255.725C215.703 255.725 216.097 255.664 216.269 255.499C216.696 255.089 215.703 254.092 215.703 254.092C202.455 245.988 172.926 251.018 155.569 211.78C141.494 179.963 91.836 240.023 91.836 274.74C91.836 278.282 95.384 282.963 92.7279 285.305C64.0154 310.615 83.8266 326.867 90.0728 343.221C91.5548 347.101 88.3414 351.361 88.3414 355.559C88.3414 356.271 88.3598 357.007 88.3961 357.744L88.4514 358.879L89.4088 358.249C91.3026 357.023 93.0582 355.601 94.6454 354.005C92.9988 357.749 92.2227 361.81 92.3744 365.89C92.5261 369.969 93.6016 373.963 95.5218 377.578C98.5308 383.189 101.442 387.207 104.174 389.517C112.926 396.918 124.209 400.735 135.715 400.189C147.221 399.643 158.082 394.774 166.076 386.579Z" fill="var(--fill-0, #E6E6E6)"/>
<path id="Vector_2" d="M115.526 471C115.331 471 115.142 470.93 114.994 470.803C114.846 470.676 114.75 470.501 114.722 470.31C114.688 470.07 111.303 445.953 114.343 413.901C117.15 384.301 126.164 341.665 153.167 306.649C153.232 306.565 153.313 306.494 153.405 306.441C153.497 306.388 153.599 306.353 153.705 306.339C153.811 306.325 153.919 306.331 154.022 306.358C154.126 306.385 154.223 306.432 154.308 306.496C154.393 306.56 154.464 306.64 154.518 306.732C154.571 306.823 154.606 306.924 154.621 307.028C154.635 307.133 154.628 307.239 154.601 307.341C154.573 307.444 154.526 307.539 154.461 307.623C127.691 342.337 118.749 384.659 115.962 414.051C112.94 445.917 116.298 469.845 116.332 470.083C116.349 470.197 116.34 470.313 116.307 470.424C116.274 470.534 116.217 470.636 116.141 470.723C116.064 470.81 115.97 470.88 115.864 470.928C115.758 470.975 115.643 471 115.526 471Z" fill="var(--fill-0, #323232)"/>
<path id="Vector_3" d="M137.562 356.041C137.391 356.041 137.223 355.987 137.084 355.887C136.945 355.788 136.842 355.647 136.788 355.486C136.735 355.324 136.735 355.15 136.788 354.989C136.841 354.828 136.945 354.687 137.084 354.587C144.778 349.441 153.09 345.26 161.829 342.141C175.481 337.202 196.241 332.725 217.613 339.446C217.715 339.478 217.81 339.529 217.892 339.597C217.974 339.665 218.041 339.749 218.09 339.842C218.14 339.936 218.17 340.039 218.179 340.144C218.188 340.249 218.176 340.355 218.143 340.456C218.111 340.557 218.059 340.65 217.99 340.731C217.921 340.811 217.836 340.878 217.741 340.926C217.646 340.975 217.542 341.004 217.436 341.013C217.329 341.022 217.222 341.01 217.12 340.977C196.186 334.395 175.802 338.798 162.388 343.65C153.79 346.716 145.611 350.827 138.04 355.887C137.901 355.987 137.734 356.041 137.562 356.041Z" fill="var(--fill-0, #323232)"/>
<path id="Vector_4" d="M100.341 264.443C100.329 264.273 100.371 264.104 100.461 263.96C100.552 263.816 100.686 263.704 100.846 263.64C101.005 263.576 101.18 263.563 101.347 263.604C101.514 263.644 101.663 263.736 101.774 263.866C107.523 271.078 112.342 278.969 116.12 287.356C122.088 300.455 128.103 320.591 122.857 342.138C122.832 342.241 122.787 342.337 122.725 342.423C122.662 342.508 122.583 342.581 122.491 342.636C122.4 342.691 122.299 342.728 122.194 342.745C122.088 342.761 121.98 342.757 121.876 342.732C121.772 342.707 121.674 342.663 121.588 342.601C121.502 342.538 121.428 342.46 121.373 342.37C121.317 342.28 121.28 342.18 121.263 342.076C121.247 341.971 121.251 341.865 121.276 341.762C126.413 320.657 120.501 300.886 114.637 288.016C110.922 279.763 106.184 271.999 100.53 264.902C100.42 264.773 100.353 264.612 100.341 264.443Z" fill="var(--fill-0, #323232)"/>
<path id="Vector_5" d="M375.044 470.149H310.303L310.025 469.65C309.197 468.167 308.398 466.595 307.651 464.98C300.983 450.874 298.164 434.74 295.677 420.506L293.804 409.776C293.577 408.477 293.748 407.14 294.295 405.937C294.841 404.734 295.739 403.72 296.872 403.024C298.006 402.328 299.324 401.982 300.657 402.03C301.991 402.079 303.28 402.519 304.358 403.295C314.197 410.369 324.04 417.436 333.886 424.496C337.614 427.177 341.872 430.279 345.95 433.632C346.344 431.744 346.755 429.85 347.167 427.983C347.45 426.693 348.117 425.517 349.081 424.604C350.046 423.691 351.264 423.084 352.579 422.859C353.895 422.634 355.249 422.803 356.468 423.342C357.686 423.882 358.714 424.769 359.419 425.889L366.994 437.914C372.518 446.695 377.395 455.348 376.401 464.681C376.406 464.795 376.397 464.908 376.375 465.02C376.177 466.553 375.808 468.06 375.276 469.513L375.044 470.149Z" fill="var(--fill-0, #F0F0F0)"/>
<path id="Vector_6" d="M344.882 218.666L332.387 172.972C331.852 171.038 330.569 169.389 328.814 168.382C327.059 167.374 324.974 167.088 323.008 167.586C321.991 167.844 321.038 168.304 320.206 168.937C319.375 169.571 318.683 170.365 318.172 171.272C317.662 172.178 317.343 173.178 317.237 174.21C317.13 175.242 317.237 176.285 317.551 177.274L332.003 224.346L339.564 253.314C338.462 254.145 337.647 255.291 337.227 256.595C336.808 257.9 336.805 259.301 337.22 260.607C337.634 261.913 338.446 263.062 339.544 263.897C340.642 264.732 341.973 265.212 343.358 265.273C344.742 265.334 346.111 264.973 347.28 264.238C348.449 263.503 349.361 262.431 349.891 261.166C350.422 259.901 350.546 258.506 350.246 257.169C349.946 255.833 349.236 254.62 348.215 253.696L344.882 218.666Z" fill="var(--fill-0, #D27852)"/>
<path id="Vector_7" d="M239.744 208.825L277.707 179.958C279.311 178.73 280.363 176.928 280.635 174.941C280.907 172.953 280.377 170.94 279.16 169.335C278.531 168.505 277.737 167.81 276.826 167.293C275.916 166.776 274.909 166.448 273.866 166.328C272.823 166.208 271.766 166.3 270.76 166.596C269.754 166.893 268.82 167.389 268.014 168.055L229.511 199.235L205.306 217.208C204.108 216.519 202.725 216.212 201.344 216.328C199.964 216.444 198.653 216.977 197.589 217.854C196.526 218.732 195.762 219.911 195.4 221.233C195.039 222.555 195.099 223.954 195.57 225.241C196.042 226.528 196.903 227.641 198.037 228.428C199.171 229.214 200.523 229.637 201.908 229.638C203.294 229.639 204.646 229.219 205.782 228.434C206.917 227.65 207.78 226.539 208.255 225.253L239.744 208.825Z" fill="var(--fill-0, #D27852)"/>
<path id="Vector_8" d="M270.685 215.461L269.012 252.388L321.553 241.105C317.081 226.267 314.04 223.736 317.401 213.41L270.685 215.461Z" fill="var(--fill-0, #D27852)"/>
<path id="Vector_9" d="M302.992 147.764H285.485L277.966 160.476L274.384 160.281C272.632 160.185 270.878 160.444 269.23 161.04C267.583 161.637 266.076 162.56 264.801 163.751C263.526 164.943 262.511 166.379 261.817 167.972C261.123 169.564 260.766 171.28 260.766 173.014L265.18 179.774C265.18 179.774 257.286 193.367 268.657 200.055C268.657 200.055 266.629 212.655 268.657 212.519C270.685 212.384 275.357 209.82 270.685 212.384C266.013 214.948 266.362 215.293 266.966 215.89L267.571 216.487L316.693 224.637C316.693 224.637 318.129 215.228 318.284 213.549C318.439 211.871 317.401 215.974 318.439 211.871C319.477 207.768 321.034 209.307 319.477 207.768C317.92 206.229 329.567 187.168 324.782 179.774L332.454 172.38C332.454 165.287 320.925 159.538 313.747 159.538H312.827L302.992 147.764Z" fill="var(--fill-0, #E6E6E6)"/>
<path id="Vector_10" d="M260.81 455.913H253.724L250.353 428.907L260.811 428.908L260.81 455.913Z" fill="var(--fill-0, #D27852)"/>
<path id="Vector_11" d="M239.423 466.244C239.426 467.028 239.743 467.779 240.303 468.334C240.864 468.89 241.624 469.204 242.418 469.209H255.757L256.17 468.362L258.057 464.516L258.788 468.362L258.949 469.209H263.981L263.909 468.356L262.567 452.46L260.812 452.353L253.229 451.91L251.366 451.797V456.544C249.953 458.029 238.86 463.646 239.423 466.244Z" fill="var(--fill-0, #323232)"/>
<path id="Vector_12" d="M366.121 437.574L360.161 441.362L342.539 420.452L351.335 414.862L366.121 437.574Z" fill="var(--fill-0, #D27852)"/>
<path id="Vector_13" d="M353.791 457.695C354.223 458.353 354.9 458.816 355.676 458.983C356.451 459.15 357.262 459.008 357.933 458.588L369.151 451.457L369.035 450.525L368.516 446.281L371.237 449.125L371.836 449.751L376.067 447.061L375.54 446.383L365.708 433.731L364.173 434.579L357.553 438.26L355.925 439.161L358.524 443.153C358.148 445.158 351.894 455.811 353.791 457.695Z" fill="var(--fill-0, #323232)"/>
<path id="Vector_14" d="M307.28 470.562L115.72 471C115.528 470.998 115.345 470.818 115.211 470.5C115.076 470.183 115 469.753 115 469.304C115 468.856 115.076 468.426 115.211 468.108C115.345 467.79 115.528 467.611 115.72 467.608L307.28 467.171C307.472 467.173 307.655 467.353 307.789 467.67C307.924 467.988 308 468.418 308 468.867C308 469.315 307.924 469.745 307.789 470.063C307.655 470.38 307.472 470.56 307.28 470.562Z" fill="var(--fill-0, #CACACA)"/>
<path id="Vector_15" d="M320.73 236.933C320.73 236.933 287.144 254.487 269.38 242.511C269.38 242.511 265.494 261.107 263.937 262.645C262.38 264.184 259.899 264.854 261.659 266.571C263.418 268.287 264.398 270.605 261.053 273.549C257.708 276.493 254.373 275.559 257.598 278.59C260.823 281.622 247.846 355.988 247.846 355.988C247.846 355.988 249.922 425.146 247.846 427.237C245.77 429.329 244.976 430.793 245.68 432.384C248.365 434.97 248.365 432.964 248.365 436.532V440.099L249.594 443.645H266.447C266.447 443.645 270.515 438.976 266.447 434.922C266.447 434.922 267.685 429.758 268.926 425.953C269.533 424.091 270.166 425.049 270.166 422.149C268.09 418.046 267.093 418.826 267.072 416.128C267.052 413.43 297.677 307.778 297.677 307.778L301.386 366.255L346.002 430.297L359.135 420.565C359.135 420.565 349.573 407.266 351.809 405.437C354.045 403.609 345.219 401.316 348.002 399.253C350.785 397.191 344.086 395.113 346.611 392.379C349.136 389.645 343.132 382.754 339.653 382.754C336.174 382.754 331.292 371.268 331.292 371.268L338.58 280.527L320.73 236.933Z" fill="var(--fill-0, #323232)"/>
<path id="Vector_16" d="M285.133 110.438C284.895 110.747 283.001 110.581 280.724 110.252C276.222 109.603 275.608 110.375 272.242 113.4C267.367 117.782 270.139 144.51 267.743 150.301L266.969 150.864C268.504 150.575 270.012 150.158 271.476 149.618C272.304 147.039 273.133 144.451 273.968 141.875C274.757 143.88 275.252 145.985 275.44 148.128C276.599 147.677 277.751 146.573 282.594 145.092C285.033 143.457 302.675 141.814 304.943 141.095C310.7 121.743 301.423 113.918 285.133 110.438Z" fill="var(--fill-0, #323232)"/>
<path id="Vector_17" d="M291.089 140.279C300.4 140.279 307.949 132.821 307.949 123.62C307.949 114.42 300.4 106.962 291.089 106.962C281.778 106.962 274.23 114.42 274.23 123.62C274.23 132.821 281.778 140.279 291.089 140.279Z" fill="var(--fill-0, #D27852)"/>
<path id="Vector_18" d="M301.704 108.97C300.753 108.832 299.839 108.515 299.009 108.037C298.598 107.792 298.265 107.437 298.048 107.013C297.831 106.59 297.739 106.114 297.782 105.642C297.99 104.458 299.344 103.751 300.558 103.823C301.766 103.995 302.914 104.454 303.904 105.161C303.795 104.017 303.3 102.943 302.499 102.11C301.698 101.277 300.637 100.735 299.486 100.569C301.083 100.484 302.742 100.41 304.218 101.016C305.694 101.623 306.924 103.125 306.657 104.682C309.139 104.366 311.586 106.074 312.61 108.33C313.635 110.585 313.432 113.233 312.613 115.569C312.532 115.927 312.375 116.264 312.151 116.556C311.927 116.848 311.642 117.089 311.316 117.264C310.481 117.577 309.582 117.052 308.859 116.534C305.079 113.83 301.639 110.691 298.611 107.182" fill="var(--fill-0, #323232)"/>
<path id="Vector_19" d="M309.054 141.331C308.34 141.663 308.712 142.9 308.156 143.454C307.915 143.689 307.625 143.867 307.305 143.977C307.222 142.945 306.978 141.931 306.584 140.972C306.511 140.797 306.392 140.602 306.205 140.618C305.987 140.643 305.93 140.926 305.924 141.136C305.88 142.179 305.647 143.206 305.234 144.167C305.229 144.177 305.224 144.193 305.219 144.203C305.058 144.198 304.891 144.193 304.736 144.187C303.532 144.141 300.864 141.085 300.272 142.121C302.358 138.464 304.902 132.966 305.291 128.786C305.426 127.911 305.36 127.017 305.099 126.17C304.963 125.749 304.707 125.375 304.362 125.093C304.017 124.812 303.597 124.634 303.153 124.58C302.933 124.57 302.715 124.609 302.512 124.692C302.31 124.775 302.128 124.902 301.981 125.063C301.834 125.223 301.724 125.414 301.66 125.622C301.596 125.829 301.579 126.048 301.611 126.263L301.31 126.222C298.517 123.975 300.926 120.072 297.677 118.528C296.576 118.005 289.839 119.754 288.65 119.446C288.625 118.209 288.369 116.987 287.897 115.841C287.825 115.667 287.705 115.472 287.518 115.487C287.3 115.513 287.243 115.795 287.238 116.005C287.194 117.048 286.96 118.075 286.548 119.036C284.901 118.805 283.225 118.892 281.611 119.293C280.189 119.662 278.84 120.298 277.412 120.636C276.707 120.85 275.964 120.919 275.231 120.84C274.497 120.76 273.788 120.534 273.145 120.175C271.334 118.975 271.017 116.318 271.92 114.359C272.574 113.102 273.458 111.975 274.526 111.035C275.341 110.256 276.187 109.507 277.033 108.758C277.791 108.086 278.549 107.414 279.307 106.743C280.261 105.855 281.277 105.036 282.348 104.291C284.059 103.183 285.98 102.433 287.995 102.085C290.01 101.738 292.075 101.801 294.064 102.27C296.451 102.834 299.644 102.04 301.829 103.142C302.971 103.722 305.499 105.943 306.501 106.732C309.065 108.748 307.33 107.106 310.134 108.271C316.821 111.05 313.864 139.093 309.054 141.331Z" fill="var(--fill-0, #323232)"/>
<path id="Vector_20" d="M122.383 262.917C180.128 262.917 226.938 216.664 226.938 159.609C226.938 102.554 180.128 56.3019 122.383 56.3019C64.6393 56.3019 17.8285 102.554 17.8285 159.609C17.8285 216.664 64.6393 262.917 122.383 262.917Z" fill="var(--fill-0, #F5F5F5)"/>
<path id="Vector_21" d="M122.383 263.948C64.1563 263.948 16.7849 217.142 16.7849 159.609C16.7849 102.077 64.1563 55.2706 122.383 55.2706C180.611 55.2706 227.982 102.077 227.982 159.609C227.982 217.142 180.611 263.948 122.383 263.948ZM122.383 57.333C65.3073 57.333 18.8722 103.214 18.8722 159.609C18.8722 216.004 65.3073 261.885 122.383 261.885C179.46 261.885 225.895 216.004 225.895 159.609C225.895 103.214 179.46 57.333 122.383 57.333Z" fill="var(--fill-0, #60A5FA)"/>
<rect id="Vector_22" x="174.719" y="197.082" width="12.3227" height="21.7663" transform="rotate(-29.5738 174.719 197.082)" fill="var(--fill-0, #F5F5F5)"/>
<path id="Vector_23" d="M125.823 213.556C129.803 211.024 133.795 208.503 137.775 205.97C139.576 204.828 141.402 203.697 143.156 202.472C147.324 199.562 151.234 196.252 154.707 192.53C161.584 185.144 166.812 176.392 170.12 166.863C172.817 159.076 173.971 150.866 173.971 142.644V126.965C173.971 124.857 172.499 123.019 170.509 122.419C169.072 121.983 167.648 121.535 166.27 120.958C166.647 121.111 167.024 121.276 167.4 121.429C164.939 120.381 162.632 119.038 160.512 117.412L161.466 118.154C159.37 116.529 157.486 114.656 155.861 112.559L156.603 113.513C154.978 111.393 153.624 109.072 152.576 106.611C152.729 106.987 152.894 107.364 153.047 107.741C152.694 106.893 152.364 106.022 152.081 105.15C151.445 103.159 149.667 101.687 147.536 101.687H105.276C103.334 101.687 101.379 101.628 99.4361 101.687H99.3537C97.2107 101.687 95.4444 103.159 94.8086 105.15C94.526 106.033 94.2081 106.893 93.8431 107.741C93.9961 107.364 94.161 106.987 94.314 106.611C93.2661 109.072 91.912 111.381 90.2871 113.513L91.0289 112.559C89.4039 114.656 87.52 116.529 85.4241 118.154L86.3778 117.412C84.2583 119.038 81.9387 120.381 79.4895 121.429C79.8663 121.276 80.2431 121.111 80.6199 120.958C79.2305 121.535 77.8175 121.983 76.381 122.419C74.391 123.019 72.9192 124.857 72.9192 126.965V141.172C72.9192 143.669 72.9192 146.166 73.0958 148.663C73.4726 153.74 74.3322 158.805 75.7569 163.694C78.5829 173.4 83.4812 182.341 89.9809 190.056C95.0323 196.052 101.12 200.905 107.714 205.087L120.749 213.356C120.854 213.427 120.972 213.498 121.078 213.568C123.162 214.888 126.365 214.075 127.519 211.872C128.744 209.54 128.049 206.842 125.823 205.429C123.704 204.086 121.585 202.743 119.477 201.4C116.769 199.68 114.072 197.972 111.364 196.252C109.468 195.051 107.62 193.767 105.83 192.401L106.784 193.143C102.333 189.691 98.3293 185.686 94.8792 181.234L95.6211 182.188C92.1122 177.629 89.192 172.635 86.943 167.334C87.0961 167.711 87.2609 168.088 87.414 168.465C85.1179 163.011 83.5519 157.286 82.7629 151.42C82.8218 151.832 82.8807 152.256 82.9278 152.668C82.4215 148.852 82.3391 145.035 82.3391 141.207V127.013C81.1851 128.532 80.0312 130.04 78.8773 131.559C82.9396 130.334 86.8724 128.709 90.3224 126.223C94.4082 123.279 97.8936 119.65 100.484 115.316C101.909 112.936 103.051 110.345 103.899 107.706C102.38 108.86 100.873 110.015 99.3537 111.169H141.613C143.556 111.169 145.511 111.216 147.454 111.169H147.536C146.017 110.015 144.51 108.86 142.991 107.706C145.947 116.929 152.658 124.951 161.466 129.098C163.585 130.099 165.764 130.876 168.013 131.559C166.859 130.04 165.705 128.532 164.551 127.013V143.716C164.551 146.708 164.351 149.7 163.962 152.668C164.021 152.256 164.08 151.832 164.127 151.42C163.326 157.274 161.76 163.011 159.476 168.465C159.629 168.088 159.794 167.711 159.947 167.334C157.698 172.635 154.778 177.629 151.269 182.188L152.011 181.234C148.561 185.686 144.557 189.691 140.106 193.143L141.06 192.401C138.423 194.438 135.62 196.194 132.818 197.984C129.709 199.963 126.601 201.93 123.492 203.909C122.691 204.416 121.879 204.934 121.078 205.44C120.054 206.088 119.241 207.066 118.912 208.256C118.605 209.387 118.747 210.883 119.383 211.884C120.725 213.957 123.598 214.97 125.823 213.556Z" fill="var(--fill-0, #60A5FA)"/>
<path id="Vector_24" d="M99.4479 157.71L111.541 169.807L113.26 171.527C115.061 173.33 118.123 173.33 119.924 171.527L129.262 162.186L144.039 147.403L147.442 143.999C149.185 142.255 149.314 139.051 147.442 137.331C145.558 135.6 142.638 135.47 140.778 137.331L131.44 146.673L116.663 161.456L113.26 164.86H119.924L107.832 152.763L106.112 151.043C104.37 149.299 101.167 149.17 99.4479 151.043C97.717 152.927 97.5875 155.837 99.4479 157.71Z" fill="var(--fill-0, #60A5FA)"/>
<rect id="Rectangle 14" x="72.6769" y="100.821" width="104.709" height="22.2198" fill="var(--fill-0, #F5F5F5)"/>
<rect id="Rectangle 12" width="57.5607" height="9.52224" rx="4.76112" transform="matrix(0.924338 -0.381575 0.381317 0.924444 71.9113 124.371)" fill="var(--fill-0, #60A5FA)"/>
<rect id="Rectangle 13" width="58.6563" height="9.52224" rx="4.76112" transform="matrix(-0.924338 -0.381575 -0.381317 0.924444 175.348 124.3)" fill="var(--fill-0, #60A5FA)"/>
<path id="Rectangle 17" d="M139.612 217.546C139.629 216.557 140.445 215.77 141.434 215.787L143.147 215.817L142.865 231.969L139.361 231.908L139.612 217.546Z" fill="var(--fill-0, #F5F5F5)"/>
<rect id="Rectangle 18" x="122.999" y="217.001" width="6.69922" height="12" fill="var(--fill-0, #F5F5F5)"/>
</g>
<defs>
<clipPath id="clip0_1139_3245">
<rect width="400" height="471" fill="white"/>
</clipPath>
</defs>
</svg>
